<?xml version="1.0" encoding="iso-8859-1"?>
<!-- Generator: Adobe Illustrator 17.0.0, SVG Export Plug-In . SVG Version: 6.00 Build 0)  -->
<!DOCTYPE svg PUBLIC "-//W3C//DTD SVG 1.1//EN" "http://www.w3.org/Graphics/SVG/1.1/DTD/svg11.dtd">
<svg version="1.1" id="Layer_1" xmlns="http://www.w3.org/2000/svg" xmlns:xlink="http://www.w3.org/1999/xlink" x="0px" y="0px"
	 width="460px" height="460px" viewBox="0 0 460 460" style="enable-background:new 0 0 460 460;" xml:space="preserve">
<g>
	<g>
		<path style="fill:none;stroke:#000000;stroke-width:6;stroke-linecap:round;stroke-linejoin:round;stroke-miterlimit:10;" d="
			M3,229.999C3,104.63,104.63,3,229.999,3S457,104.63,457,229.999C457,355.37,355.368,457,229.999,457S3,355.37,3,229.999z"/>
	</g>
	<g>
		<g>
			<g>
				<path style="fill:none;stroke:#000000;stroke-width:6;stroke-linecap:round;stroke-linejoin:round;stroke-miterlimit:10;" d="
					M112.214,202.115v-38.828c0-3.314,2.304-6,5.146-6h26.739c2.842,0,5.146,2.686,5.146,6v18.018"/>
				<path style="fill:none;stroke:#000000;stroke-width:6;stroke-linecap:round;stroke-linejoin:round;stroke-miterlimit:10;" d="
					M149.245,172.584h-37.032v-9.297c0-3.314,2.304-6,5.146-6h26.739c2.842,0,5.146,2.686,5.146,6V172.584z"/>
			</g>
			<g>
				<path style="fill:none;stroke:#000000;stroke-width:6;stroke-linecap:round;stroke-linejoin:round;stroke-miterlimit:10;" d="
					M310.755,181.092v-17.805c0-3.314,2.304-6,5.146-6h26.739c2.842,0,5.146,2.686,5.146,6v38.516"/>
				<path style="fill:none;stroke:#000000;stroke-width:6;stroke-linecap:round;stroke-linejoin:round;stroke-miterlimit:10;" d="
					M347.786,172.584h-37.032v-9.297c0-3.314,2.304-6,5.146-6h26.739c2.842,0,5.146,2.686,5.146,6V172.584z"/>
			</g>
		</g>
		<path style="fill:none;stroke:#000000;stroke-width:6;stroke-linecap:round;stroke-linejoin:round;stroke-miterlimit:10;" d="
			M255.773,226.04l142.405,17.213c16.444,2.028,18.107-2.982,3.714-11.19l-144.293-80.7"/>
		<path style="fill:none;stroke:#000000;stroke-width:6;stroke-linecap:round;stroke-linejoin:round;stroke-miterlimit:10;" d="
			M202.402,151.436L58.244,232.441c-14.51,7.999-12.935,12.893,3.517,10.932l142.466-17.317"/>
		
			<line style="fill:none;stroke:#000000;stroke-width:6;stroke-linecap:round;stroke-linejoin:round;stroke-miterlimit:10;" x1="401.892" y1="232.063" x2="256.067" y2="214.027"/>
		
			<line style="fill:none;stroke:#000000;stroke-width:6;stroke-linecap:round;stroke-linejoin:round;stroke-miterlimit:10;" x1="203.934" y1="214.087" x2="58.244" y2="232.441"/>
		<path style="fill:none;stroke:#000000;stroke-width:6;stroke-linecap:round;stroke-linejoin:round;stroke-miterlimit:10;" d="
			M253.211,330.694l5.556-226.954c0-20.203-12.879-56.581-28.767-56.581s-28.767,36.378-28.767,56.581l5.558,227.034"/>
		<path style="fill:none;stroke:#000000;stroke-width:6;stroke-linecap:round;stroke-linejoin:round;stroke-miterlimit:10;" d="
			M235.989,376.002l68.57,19.435c8.939,1.781,11.017-7.538,4.641-13.414L230,309.415L150.912,382.2
			c-6.486,5.778-4.487,15.064,4.466,13.34l67.572-19.229"/>
		<path style="fill:none;stroke:#000000;stroke-width:6;stroke-linecap:round;stroke-linejoin:round;stroke-miterlimit:10;" d="
			M235.989,396.851c0,3.308-2.681,5.989-5.989,5.989l0,0c-3.308,0-5.989-2.681-5.989-5.989v-63.783c0-3.308,2.681-5.989,5.989-5.989
			l0,0c3.308,0,5.989,2.681,5.989,5.989V396.851z"/>
		<path style="fill:none;stroke:#000000;stroke-width:6;stroke-linecap:round;stroke-linejoin:round;stroke-miterlimit:10;" d="
			M230,80.229c7.635,0,14.147,4.794,16.698,11.535c0.743-1.964,1.154-4.092,1.154-6.317c0-9.859-7.993-17.852-17.852-17.852
			c-9.859,0-17.852,7.993-17.852,17.852c0,2.225,0.41,4.353,1.154,6.317C215.853,85.023,222.365,80.229,230,80.229z"/>
		<path style="fill:none;stroke:#000000;stroke-width:6;stroke-linecap:round;stroke-linejoin:round;stroke-miterlimit:10;" d="
			M385.288,292.079c0-3.783-3.07-6.851-6.851-6.851c-3.784,0-6.85,3.068-6.85,6.851c0-8.999-7.294-16.295-16.295-16.295
			c-8.997,0-16.293,7.296-16.293,16.295h-0.327c0-5.417-4.392-9.809-9.809-9.809c-5.419,0-9.813,4.393-9.813,9.809"/>
		<path style="fill:none;stroke:#000000;stroke-width:6;stroke-linecap:round;stroke-linejoin:round;stroke-miterlimit:10;" d="
			M49.743,297.856c0-5.835,4.735-10.57,10.572-10.57c5.838,0,10.567,4.735,10.567,10.57c0-13.885,11.257-25.143,25.145-25.143
			c13.884,0,25.143,11.258,25.143,25.143h0.5c0-8.358,6.779-15.138,15.139-15.138c8.361,0,15.139,6.779,15.139,15.138"/>
		<path style="fill:none;stroke:#000000;stroke-width:6;stroke-linecap:round;stroke-linejoin:round;stroke-miterlimit:10;" d="
			M151.948,114.941c0-3.504-2.843-6.347-6.348-6.347c-3.505,0-6.345,2.843-6.345,6.347c0-8.338-6.76-15.098-15.099-15.098
			c-8.337,0-15.098,6.76-15.098,15.098h-0.3c0-5.019-4.071-9.09-9.091-9.09c-5.021,0-9.091,4.071-9.091,9.09"/>
		<path style="fill:none;stroke:#000000;stroke-width:6;stroke-linecap:round;stroke-linejoin:round;stroke-miterlimit:10;" d="
			M368.039,114.941c0-8.999-7.294-16.295-16.295-16.295c-8.997,0-16.293,7.296-16.293,16.295h-0.327
			c0-5.417-4.392-9.809-9.809-9.809c-5.419,0-9.813,4.393-9.813,9.809"/>
	</g>
</g>
<g>
</g>
<g>
</g>
<g>
</g>
<g>
</g>
<g>
</g>
<g>
</g>
<g>
</g>
<g>
</g>
<g>
</g>
<g>
</g>
<g>
</g>
<g>
</g>
<g>
</g>
<g>
</g>
<g>
</g>
</svg>
