<?xml version="1.0" encoding="iso-8859-1"?>
<!-- Generator: Adobe Illustrator 17.0.0, SVG Export Plug-In . SVG Version: 6.00 Build 0)  -->
<!DOCTYPE svg PUBLIC "-//W3C//DTD SVG 1.1//EN" "http://www.w3.org/Graphics/SVG/1.1/DTD/svg11.dtd">
<svg version="1.1" id="Layer_1" xmlns="http://www.w3.org/2000/svg" xmlns:xlink="http://www.w3.org/1999/xlink" x="0px" y="0px"
	 width="460px" height="460px" viewBox="0 0 460 460" style="enable-background:new 0 0 460 460;" xml:space="preserve">
<path style="fill:none;stroke:#000000;stroke-width:6;stroke-miterlimit:10;" d="M3,229.999C3,104.63,104.63,3,229.999,3
	S457,104.63,457,229.999C457,355.37,355.369,457,229.999,457S3,355.37,3,229.999z"/>
<path style="fill:none;stroke:#000000;stroke-width:6;stroke-miterlimit:10;" d="M375.629,234.051l-5.253-2.404v-53.56l5.265,2.374
	l24.198,10.908c2.895,1.306,5.265,4.974,5.265,8.149V248l-5.253-2.873L375.629,234.051z"/>
<path style="fill:none;stroke:#000000;stroke-width:6;stroke-miterlimit:10;" d="M367.185,226.832c0,0-26.057-38.865-34.338-51.768
	c-2.688-4.056-4.859-4.815-8.603-4.815c-16.243,0-65.542,0-65.542,0v5.775v59.331c0,3.177-2.598,5.776-5.776,5.776H68.887v5.775
	v54.097c0,3.177,2.598,5.777,5.776,5.777h27.252"/>
<path style="fill:none;stroke:#000000;stroke-width:6;stroke-miterlimit:10;" d="M381.636,306.781h17.692
	c3.18,0,5.776-2.6,5.776-5.777v-47.698c0-3.177-2.364-6.857-5.253-8.178"/>
<line style="fill:none;stroke:#000000;stroke-width:6;stroke-miterlimit:10;" x1="153.894" y1="306.781" x2="329.655" y2="306.781"/>
<circle style="fill:none;stroke:#000000;stroke-width:6;stroke-miterlimit:10;" cx="127.904" cy="306.781" r="25.99"/>
<circle style="fill:none;stroke:#000000;stroke-width:6;stroke-miterlimit:10;" cx="355.645" cy="306.781" r="25.99"/>
<path style="fill:none;stroke:#000000;stroke-width:6;stroke-linejoin:round;stroke-miterlimit:10;" d="M326.169,120.633
	c-15.642,0-61.608,0-61.608,0c-3.178,0-5.776,2.598-5.776,5.776v38.064c0,3.176,2.598,5.775,5.776,5.775h65.095l40.721,61.398
	v-53.56l-38.363-54.127C332.013,123.96,330.02,120.633,326.169,120.633z"/>
<line style="fill:none;stroke:#000000;stroke-width:6;stroke-miterlimit:10;" x1="68.887" y1="157.677" x2="68.887" y2="241.131"/>
<g>
	<path style="fill:none;stroke:#000000;stroke-width:6;stroke-miterlimit:10;" d="M405.104,282.645h-11.863
		c-7.955-12.347-21.814-20.531-37.595-20.531c-15.779,0-29.641,8.184-37.596,20.531H166.29
		c-7.806-13.051-22.072-21.792-38.386-21.792c-16.312,0-30.58,8.741-38.386,21.792H68.887"/>
	<path style="fill:none;stroke:#000000;stroke-width:6;stroke-miterlimit:10;" d="M400.348,306.817"/>
</g>
<polyline style="fill:none;stroke:#000000;stroke-width:6;stroke-miterlimit:10;" points="338.112,183 273.082,183 273.082,222.907 
	364.299,222.907 "/>
<line style="fill:none;stroke:#000000;stroke-width:6;stroke-linecap:round;stroke-miterlimit:10;" x1="335.73" y1="179.829" x2="335.73" y2="129.372"/>
<path style="fill:none;stroke:#000000;stroke-width:6;stroke-miterlimit:10;" d="M117.316,306.781
	c0-5.848,4.738-10.588,10.588-10.588c5.849,0,10.588,4.74,10.588,10.588c0,5.847-4.74,10.587-10.588,10.587
	C122.054,317.368,117.316,312.628,117.316,306.781z"/>
<circle style="fill:none;stroke:#000000;stroke-width:6;stroke-miterlimit:10;" cx="355.646" cy="306.781" r="10.589"/>
<path style="fill:none;stroke:#000000;stroke-width:6;stroke-miterlimit:10;" d="M291.868,240.389c0,2.621-1.538,4.742-3.436,4.742
	h-12.685c-1.897,0-3.436-2.121-3.436-4.742l0,0c0-2.62,1.538-4.742,3.436-4.742h12.685
	C290.33,235.647,291.868,237.769,291.868,240.389L291.868,240.389z"/>
<path style="fill:none;stroke:#000000;stroke-width:6;stroke-miterlimit:10;" d="M68.887,158.413c0,2.345,1.919,4.264,4.264,4.264
	h181.287c2.345,0,4.264-1.919,4.264-4.264v-45.326c0-2.345-1.919-4.264-4.264-4.264H73.151c-2.345,0-4.264,1.919-4.264,4.264
	V158.413z"/>
<g>
</g>
<g>
</g>
<g>
</g>
<g>
</g>
<g>
</g>
<g>
</g>
<g>
</g>
<g>
</g>
<g>
</g>
<g>
</g>
<g>
</g>
<g>
</g>
<g>
</g>
<g>
</g>
<g>
</g>
</svg>
